{"title":"The Hobbit The Desolation Of Smaug 2013 BDRip 720p x264 Dual Aud","uid":9947181,"size":1516106214,"categoryP":"video","categoryS":"hd___movies","magnet":"?xt=urn:btih:f0bede07395d4007213e06cc9c533ee647976949&amp;dn=The+Hobbit+The+Desolation+Of+Smaug+2013+BDRip+720p+x264+Dual+Aud&amp;tr=udp%3A%2F%2Ftracker.openbittorrent.com%3A80&amp;tr=udp%3A%2F%2Fopen.demonii.com%3A1337&amp;tr=udp%3A%2F%2Ftracker.coppersurfer.tk%3A6969&amp;tr=udp%3A%2F%2Fexodus.desync.com%3A6969","seeders":2,"leechers":0,"uploader":"Dj_SaM","files":9,"time":1397332161,"description":"The Hobbit The Desolation Of Smaug 2013 BDRip 720p x264 Dual Audio 5.1Ch. 128Kbps[Hindi-Eng] YsB TeaM SSX\n\nTeaM SSX Presents...\n\n &lt;a href=&quot;\nhttp://i.imgur.com/etwHwRc.jpg&quot; rel=&quot;nofollow&quot; target=&quot;_NEW&quot;&gt;\nhttp://i.imgur.com/etwHwRc.jpg&lt;/a&gt;\n\nInfo:\nGeneral\nUnique ID                                : 210639308714374243346726465513300000836 (0x9E77A7BBF5F6630EB939D21EE2D98044)\nComplete name                            : The Hobbit The Desolation Of Smaug 2013 BDRip 720p x264 Dual Audio 5.1Ch. 128Kbps[Hindi-Eng] YsB TeaM SSX.mkv\nFormat                                   : Matroska\nFormat version                           : Version 4 / Version 2\nFile size                                : 1.41 GiB\nDuration                                 : 2h 41mn\nOverall bit rate mode                    : Variable\nOverall bit rate                         : 1 252 Kbps\nMovie name                               : The Hobbit The Desolation Of Smaug 2013 BDRip 720p x264 Dual Audio 5.1Ch. 128Kbps[Hindi-Eng] YsB TeaM SSX\nEncoded date                             : UTC 2014-04-12 17:26:09\nWriting application                      : mkvmerge v6.8.0 ('Theme for Great Cities') 32bit built on Mar  2 2014 21:27:07\nWriting library                          : libebml v1.3.0 + libmatroska v1.4.1\n\nVideo\nID                                       : 1\nFormat                                   : AVC\nFormat/Info                              : Advanced Video Codec\nFormat profile                           : &lt;a class=&quot;__cf_email__&quot; href=&quot;/cdn-cgi/l/email-protection&quot; data-cfemail=&quot;6e260709062e225a405f&quot;&gt;[email&amp;#160;protected]&lt;/a&gt;&lt;script cf-hash='f9e31' type=&quot;text/javascript&quot;&gt;\n/* &lt;![CDATA[ */!function(){try{var t=&quot;currentScript&quot;in document?document.currentScript:function(){for(var t=document.getElementsByTagName(&quot;script&quot;),e=t.length;e--;)if(t[e].getAttribute(&quot;cf-hash&quot;))return t[e]}();if(t&amp;&amp;t.previousSibling){var e,r,n,i,c=t.previousSibling,a=c.getAttribute(&quot;data-cfemail&quot;);if(a){for(e=&quot;&quot;,r=parseInt(a.substr(0,2),16),n=2;a.length-n;n+=2)i=parseInt(a.substr(n,2),16)^r,e+=String.fromCharCode(i);e=document.createTextNode(e),c.parentNode.replaceChild(e,c)}}}catch(u){}}();/* ]]&gt; */&lt;/script&gt;\nFormat settings, CABAC                   : Yes\nFormat settings, ReFrames                : 4 frames\nCodec ID                                 : V_MPEG4/ISO/AVC\nDuration                                 : 2h 41mn\nBit rate mode                            : Variable\nBit rate                                 : 972 Kbps\nNominal bit rate                         : 1 024 Kbps\nMaximum bit rate                         : 40.0 Mbps\nWidth                                    : 1 280 pixels\nHeight                                   : 528 pixels\nDisplay aspect ratio                     : 2.40:1\nFrame rate mode                          : Constant\nFrame rate                               : 23.976 fps\nColor space                              : YUV\nChroma subsampling                       : 4:2:0\nBit depth                                : 8 bits\nScan type                                : Progressive\nBits/(Pixel*Frame)                       : 0.060\nStream size                              : 1.09 GiB (78%)\nTitle                                    : The Hobbit The Desolation Of Smaug 2013 BDRip 720p x264 Dual Audio 5.1Ch. 128Kbps[Hindi-Eng] YsB TeaM SSX\nWriting library                          : x264 core 138 r2358 9e941d1\nLanguage                                 : English\nDefault                                  : Yes\nForced                                   : No\n\nAudio #1\nID                                       : 2\nFormat                                   : AC-3\nFormat/Info                              : Audio Coding 3\nMode extension                           : CM (complete main)\nFormat settings, Endianness              : Big\nCodec ID                                 : A_AC3\nDuration                                 : 2h 41mn\nBit rate mode                            : Constant\nBit rate                                 : 128 Kbps\nChannel(s)                               : 6 channels\nChannel positions                        : Front: L C R, Side: L R, LFE\nSampling rate                            : 48.0 KHz\nBit depth                                : 16 bits\nCompression mode                         : Lossy\nStream size                              : 148 MiB (10%)\nTitle                                    : TeaM SSX\nLanguage                                 : Hindi\nDefault                                  : Yes\nForced                                   : No\n\nAudio #2\nID                                       : 3\nFormat                                   : AC-3\nFormat/Info                              : Audio Coding 3\nMode extension                           : CM (complete main)\nFormat settings, Endianness              : Big\nCodec ID                                 : A_AC3\nDuration                                 : 2h 41mn\nBit rate mode                            : Constant\nBit rate                                 : 128 Kbps\nChannel(s)                               : 6 channels\nChannel positions                        : Front: L C R, Side: L R, LFE\nSampling rate                            : 48.0 KHz\nBit depth                                : 16 bits\nCompression mode                         : Lossy\nStream size                              : 148 MiB (10%)\nTitle                                    : TeaM SSX\nLanguage                                 : English\nDefault                                  : No\nForced                                   : No\n\nScreenShot: &lt;a href=&quot;\nhttp://i.imgur.com/6nMvJgM.jpg&quot; rel=&quot;nofollow&quot; target=&quot;_NEW&quot;&gt;\nhttp://i.imgur.com/6nMvJgM.jpg&lt;/a&gt; &lt;a href=&quot;\nhttp://i.imgur.com/HLGycmu.jpg&quot; rel=&quot;nofollow&quot; target=&quot;_NEW&quot;&gt;\nhttp://i.imgur.com/HLGycmu.jpg&lt;/a&gt; &lt;a href=&quot;\nhttp://i.imgur.com/nHMVK55.jpg&quot; rel=&quot;nofollow&quot; target=&quot;_NEW&quot;&gt;\nhttp://i.imgur.com/nHMVK55.jpg&lt;/a&gt; &lt;a href=&quot;\nhttp://i.imgur.com/CYhkNuc.jpg&quot; rel=&quot;nofollow&quot; target=&quot;_NEW&quot;&gt;\nhttp://i.imgur.com/CYhkNuc.jpg&lt;/a&gt; &lt;a href=&quot;\nhttp://i.imgur.com/dalUsyI.jpg&quot; rel=&quot;nofollow&quot; target=&quot;_NEW&quot;&gt;\nhttp://i.imgur.com/dalUsyI.jpg&lt;/a&gt;\n\nThanks...\nTeaM GPSoft, Public HD, Invincible...\nTeaM SSX, Maverick Dude, Hari, Romeo007, HemKumar...","torrent":{"xt":"urn:btih:f0bede07395d4007213e06cc9c533ee647976949","amp;dn":"The+Hobbit+The+Desolation+Of+Smaug+2013+BDRip+720p+x264+Dual+Aud","amp;tr":["udp%3A%2F%2Ftracker.openbittorrent.com%3A80","udp%3A%2F%2Fopen.demonii.com%3A1337","udp%3A%2F%2Ftracker.coppersurfer.tk%3A6969","udp%3A%2F%2Fexodus.desync.com%3A6969"],"infoHash":"f0bede07395d4007213e06cc9c533ee647976949","infoHashBuffer":{"type":"Buffer","data":[240,190,222,7,57,93,64,7,33,62,6,204,156,83,62,230,71,151,105,73]},"announce":[],"urlList":[]}}